<?xml version="1.0" encoding="UTF-8"?>
<svg width="10px" height="20px" viewBox="0 0 10 20" version="1.1" xmlns="http://www.w3.org/2000/svg" xmlns:xlink="http://www.w3.org/1999/xlink">
    <title>6BAE65CD-A401-4A0D-B5DE-4E0661F44D1E</title>
    <defs>
        <path d="M9.75583333,13.5775 C10.0816667,13.9033333 10.0816667,14.43 9.75583333,14.7558333 L5.58916667,18.9225 C5.26333333,19.2483333 4.73666667,19.2483333 4.41083333,18.9225 L0.244166667,14.7558333 C-0.0816666667,14.43 -0.0816666667,13.9033333 0.244166667,13.5775 C0.406666667,13.415 0.62,13.3333333 0.833333333,13.3333333 C1.04666667,13.3333333 1.26,13.415 1.4225,13.5775 L5,17.155 L8.5775,13.5775 C8.90333333,13.2516667 9.43,13.2516667 9.75583333,13.5775 Z M5.58916667,1.0775 L9.75583333,5.24416667 C10.0816667,5.57 10.0816667,6.09666667 9.75583333,6.4225 C9.59333333,6.585 9.38,6.66666667 9.16666667,6.66666667 C8.95333333,6.66666667 8.74,6.585 8.5775,6.4225 L5,2.845 L1.4225,6.4225 C1.09666667,6.74833333 0.57,6.74833333 0.244166667,6.4225 C-0.0816666667,6.09666667 -0.0816666667,5.57 0.244166667,5.24416667 L4.41083333,1.0775 C4.73666667,0.751666667 5.26333333,0.751666667 5.58916667,1.0775 Z" id="path-chevrons-up"></path>
    </defs>
    <g id="Modules---Create-module" stroke="none" stroke-width="1" fill="none" fill-rule="evenodd">
        <g id="Modules---0.2---Create-a-module" transform="translate(-809.000000, -349.000000)">
            <g id="Label/Error-Copy-2" transform="translate(690.000000, 331.000000)">
                <g id="Icon/Alert/Info-Copy" transform="translate(119.000000, 18.000000)">
                    <mask id="mask-chevrons-up" fill="white">
                        <use xlink:href="#path-chevrons-up"></use>
                    </mask>
                    <use id="Icon-Chevrons-Up" fill="currentColor" xlink:href="#path-chevrons-up"></use>
                </g>
            </g>
        </g>
    </g>
</svg>