<?xml version="1.0" encoding="UTF-8"?>
<svg width="18px" height="18px" viewBox="0 0 18 18" version="1.1" xmlns="http://www.w3.org/2000/svg" xmlns:xlink="http://www.w3.org/1999/xlink">
    <title>Icon/Controls/Layout-Controls/Maximize/Maximize-2</title>
    <defs>
        <path d="M7.74416667,11.0775 C8.07,10.7516667 8.59666667,10.7516667 8.9225,11.0775 C9.24833333,11.4033333 9.24833333,11.93 8.9225,12.2558333 L8.9225,12.2558333 L4.51166667,16.6666667 L7.5,16.6666667 C7.96,16.6666667 8.33333333,17.0391667 8.33333333,17.5 C8.33333333,17.9608333 7.96,18.3333333 7.5,18.3333333 L7.5,18.3333333 L2.5,18.3333333 C2.39166667,18.3333333 2.28333333,18.3116667 2.18166667,18.2691667 C1.97833333,18.1841667 1.81583333,18.0225 1.73083333,17.8183333 C1.68833333,17.7166667 1.66666667,17.6083333 1.66666667,17.5 L1.66666667,17.5 L1.66666667,12.5 C1.66666667,12.0391667 2.04,11.6666667 2.5,11.6666667 C2.96,11.6666667 3.33333333,12.0391667 3.33333333,12.5 L3.33333333,12.5 L3.33333333,15.4883333 Z M17.4999167,1.66683333 C17.60825,1.66683333 17.7165833,1.6885 17.81825,1.731 C18.0224167,1.81516667 18.1840833,1.97766667 18.2690833,2.18183333 C18.3115833,2.2835 18.33325,2.391 18.33325,2.50016667 L18.33325,2.50016667 L18.33325,7.50016667 C18.33325,7.96016667 17.96075,8.3335 17.4999167,8.3335 C17.0390833,8.3335 16.6665833,7.96016667 16.6665833,7.50016667 L16.6665833,7.50016667 L16.6665833,4.51183333 L12.25575,8.92266667 C12.09325,9.08516667 11.8799167,9.16683333 11.6665833,9.16683333 C11.45325,9.16683333 11.2399167,9.08516667 11.0774167,8.92266667 C10.7515833,8.59683333 10.7515833,8.06933333 11.0774167,7.74433333 L11.0774167,7.74433333 L15.48825,3.3335 L12.4999167,3.3335 C12.0390833,3.3335 11.6665833,2.96016667 11.6665833,2.50016667 C11.6665833,2.04016667 12.0390833,1.66683333 12.4999167,1.66683333 L12.4999167,1.66683333 Z" id="path-1"></path>
    </defs>
    <g id="Modules---Create-module" stroke="none" stroke-width="1" fill="none" fill-rule="evenodd">
        <g id="Icon/Controls/Layout-Controls/Maximize/Maximize-2" transform="translate(-1.000000, -1.000000)">
            <mask id="mask-2" fill="white">
                <use xlink:href="#path-1"></use>
            </mask>
            <use id="Icon-Maximize-2" fill="#98989E" fill-rule="evenodd" xlink:href="#path-1"></use>
        </g>
    </g>
</svg>