<?xml version="1.0" encoding="UTF-8"?>
<svg width="12px" height="12px" viewBox="0 0 12 12" version="1.1" xmlns="http://www.w3.org/2000/svg" xmlns:xlink="http://www.w3.org/1999/xlink">
    <title>Rocket</title>
    <defs>
        <path d="M4.50237602,2.8293018 C6.57323942,0.697096027 8.94703605,-0.235467329 11.555901,0.0503023493 L11.555901,0.0503023493 L11.6124551,0.0606313738 C11.7993295,0.113260213 11.9281745,0.261801423 11.948829,0.441821564 C12.2355337,3.02899628 11.3164067,5.38401387 9.21800393,7.4424409 C8.69672272,7.95397354 8.09528222,8.45025857 7.43138633,8.91752397 L7.43138633,8.91752397 L7.4318781,8.99474572 C7.41515776,9.64596613 7.14812408,10.3183364 6.71683764,10.7964227 L6.71683764,10.7964227 L6.62979351,10.8898758 L5.61181982,11.9021202 C5.51690729,11.9709804 5.42691252,12 5.33445887,12 C5.25134894,12 5.17069788,11.9763908 5.09988232,11.9321236 C4.94743215,11.8376868 4.86923997,11.6684875 4.89579581,11.4904348 C4.96661137,11.0093974 5.00546157,10.6380443 5.01332997,10.3630955 L5.01332997,10.3630955 L4.29533886,10.7373997 C4.1310861,10.8018332 3.97371818,10.7826507 3.84979095,10.691165 L3.84979095,10.691165 L3.80258057,10.6513245 L3.26212014,10.1112641 L3.20704137,10.1515965 C2.51462255,10.6483734 1.93088594,10.9110257 1.51779517,10.9110257 C1.26305585,10.9110257 1.06437886,10.7265788 1.05552692,10.4816334 C1.04569142,10.2042253 1.17158575,9.68039621 1.82564615,8.75570258 L1.82564615,8.75570258 L1.86007038,8.70750047 L1.3186264,8.16104589 C1.20109224,7.9898792 1.19568272,7.80149746 1.29059524,7.65148068 L1.29059524,7.65148068 L1.65303322,6.945664 C1.60188865,6.94763144 1.54680988,6.94615586 1.48828868,6.94910701 C1.19715804,6.96238719 0.841604909,7.01796717 0.558834437,7.09371335 C0.364583418,7.14585033 0.15902158,7.05977513 0.059191309,6.88664101 C-0.0288363682,6.73367307 -0.0180173241,6.5433239 0.0872224688,6.40117685 L0.0872224688,6.40117685 L0.125089123,6.35592589 L1.20256756,5.28269106 C1.74204444,4.79230832 2.44823296,4.52031067 3.10426045,4.5247374 L3.10426045,4.5247374 L3.26310369,4.30389302 C3.6599659,3.76284888 4.0764991,3.2670557 4.50237602,2.8293018 Z M6.42865765,9.57169552 L6.37554598,9.60465003 C6.21080144,9.70449727 6.04654868,9.80040964 5.88131237,9.89386271 L5.88131237,9.89386271 L5.88426302,9.91452076 C5.89950804,10.0438795 5.90540933,10.1894696 5.90147513,10.3586688 L5.90147513,10.3586688 L6.07556339,10.1820917 C6.22407936,10.0128924 6.34653127,9.80139335 6.42865765,9.57169552 L6.42865765,9.57169552 Z M4.32976309,9.22247612 L4.2673077,9.2805154 C4.1778047,9.36216388 4.09076057,9.43987749 4.00519176,9.51562367 L4.00519176,9.51562367 L3.96093204,9.55349676 L4.19206616,9.78467017 L4.65285909,9.54513517 L4.32976309,9.22247612 Z M4.47483663,7.49162673 C4.19895101,7.50933363 4.03420647,7.58065308 3.85372515,7.7621488 C3.12688209,8.48911538 2.59330651,9.14181136 2.26430921,9.70744842 C2.81853933,9.3808545 3.47063263,8.8452208 4.20337698,8.11186006 C4.37844879,7.9367585 4.45467387,7.76657552 4.47483663,7.49162673 Z M8.29445098,1.30404918 L8.21478348,1.33356068 C6.27227328,2.07577487 4.51417861,3.76776746 2.99164404,6.36232005 L2.99164404,6.36232005 L2.89378087,6.53053559 L3.36834349,7.004687 L3.39096512,6.98550453 C3.49522137,6.90238047 3.60144471,6.83450402 3.71111047,6.78039961 C3.9948645,6.64267928 4.22108087,6.60185504 4.7187569,6.59841204 L4.7187569,6.59841204 L4.97300444,6.60185504 C5.21348228,6.64415486 5.36740777,6.82466686 5.36740777,7.04256009 L5.36740777,7.04256009 L5.36544068,7.36030056 C5.35117921,7.92052717 5.25036539,8.23728393 4.97988928,8.57519058 L4.97988928,8.57519058 L4.96071007,8.59732421 L5.46281207,9.09901969 L5.63198258,9.00064802 C8.25461723,7.45031063 9.95566603,5.66732425 10.6884104,3.70087473 L10.6884104,3.70087473 L10.6412,3.68513526 C10.134672,3.49872096 9.66355184,3.18885023 9.2361996,2.76240907 C8.79802831,2.32367146 8.47394876,1.82148412 8.29445098,1.30404918 L8.29445098,1.30404918 Z M2.45118361,7.34308552 L2.21365641,7.80592419 L2.41380873,8.00611052 L2.45118361,7.96282699 C2.52544159,7.87576807 2.60265023,7.79018472 2.68280951,7.70165023 L2.68280951,7.70165023 L2.7432978,7.63524935 L2.45118361,7.34308552 Z M2.43446327,5.54239224 C2.21562351,5.62895931 2.00661925,5.75684247 1.82712147,5.91522084 L1.82712147,5.91522084 L1.68008083,6.05687604 C1.83548164,6.05933533 1.97907987,6.0726155 2.1089084,6.0962247 L2.1089084,6.0962247 L2.2352945,5.87636404 C2.30070054,5.76422034 2.36709013,5.65306036 2.43446327,5.54239224 Z M6.61730244,3.42749988 C7.15628754,2.88842317 8.03361367,2.88940689 8.57161522,3.42749988 C8.83274761,3.68818478 8.97634583,4.03543675 8.97634583,4.40433048 C8.97634583,4.77371608 8.83274761,5.12096804 8.57161522,5.38165295 C8.31097461,5.64233785 7.96378165,5.78596048 7.59445883,5.78596048 C7.225136,5.78596048 6.87794304,5.64233785 6.61730244,5.38165295 C6.0788091,4.84257624 6.0788091,3.96608473 6.61730244,3.42749988 Z M10.6412,0.886953335 C10.1351638,0.886953335 9.63306181,0.942041466 9.14866369,1.05074215 L9.14866369,1.05074215 L9.15800741,1.07926993 C9.29619611,1.44767181 9.53421508,1.80377723 9.86517948,2.13381415 C10.1961439,2.46532665 10.5664502,2.71076395 10.9416744,2.84897614 L10.9416744,2.84897614 L10.9711809,2.7196174 C11.093141,2.13332229 11.1354336,1.52194241 11.0970752,0.902692801 L11.0970752,0.902692801 Z" id="path-rocket"></path>
    </defs>
    <g id="Page-1" stroke="none" stroke-width="1" fill="none" fill-rule="evenodd">
        <g id="more-metricgroups" transform="translate(-19.000000, -81.000000)">
            <g id="Group-10" transform="translate(9.000000, 10.000000)">
                <g id="Archive-Copy-3" transform="translate(10.000000, 39.000000)">
                    <g id="Icon/Math/Plus/Circle-Copy" transform="translate(0.000000, 32.000000)">
                        <mask id="mask-2" fill="currentColor">
                            <use xlink:href="#path-rocket"></use>
                        </mask>
                        <use id="Mask" fill="currentColor" xlink:href="#path-rocket"></use>
                    </g>
                </g>
            </g>
        </g>
    </g>
</svg>